<svg width="80" height="80" viewBox="0 0 80 80" fill="none" xmlns="http://www.w3.org/2000/svg">
<g id="Group 10">
<path id="Vector" d="M39.9999 0.423996C18.1299 0.423996 0.399902 18.2328 0.399902 40.2C0.399902 62.1672 18.1299 79.976 39.9999 79.976C61.8699 79.976 79.5999 62.1672 79.5999 40.2C79.5999 18.2328 61.8699 0.423996 39.9999 0.423996ZM39.9999 78.168C19.1199 78.168 2.1999 61.1728 2.1999 40.2C2.1999 19.2272 19.1199 2.232 39.9999 2.232C60.8799 2.232 77.7999 19.2272 77.7999 40.2C77.7999 61.1728 60.8799 78.168 39.9999 78.168Z" fill="white"/>
<path id="Vector_2" d="M40 4.3112C20.29 4.3112 4.27002 20.4024 4.27002 40.2C4.27002 59.9976 20.29 76.0888 40 76.0888C59.71 76.0888 75.73 59.9976 75.73 40.2C75.73 20.4024 59.71 4.3112 40 4.3112ZM40 75.1848C20.74 75.1848 5.17002 59.4552 5.17002 40.2C5.17002 20.9448 20.74 5.2152 40 5.2152C59.26 5.2152 74.83 20.8544 74.83 40.2C74.83 59.5456 59.26 75.1848 40 75.1848Z" fill="white"/>
<path id="Vector_3" d="M39.9998 37.488C38.4698 37.488 37.2998 38.6632 37.2998 40.2C37.2998 41.7368 38.4698 42.912 39.9998 42.912C41.5298 42.912 42.6998 41.7368 42.6998 40.2C42.6998 38.6632 41.5298 37.488 39.9998 37.488ZM39.9998 42.008C39.0098 42.008 38.1998 41.1944 38.1998 40.2C38.1998 39.2056 39.0098 38.392 39.9998 38.392C40.9898 38.392 41.7998 39.2056 41.7998 40.2C41.7998 41.1944 40.9898 42.008 39.9998 42.008Z" fill="white"/>
<path id="Vector_4" d="M68.62 23.6568C68.53 23.476 68.26 23.3856 67.99 23.476L49.9 33.9624C49 32.516 47.74 31.2504 46.21 30.256L56.65 12.0856C56.74 11.9048 56.74 11.6336 56.47 11.4528C56.29 11.3624 56.02 11.3624 55.84 11.6336L45.49 29.804C43.87 28.9 41.98 28.448 40 28.448C33.52 28.448 28.3 33.6912 28.3 40.2C28.3 42.1888 28.75 44.0872 29.65 45.7144L11.56 56.2008C11.38 56.2912 11.29 56.5624 11.38 56.8336C11.47 57.0144 11.65 57.1048 11.74 57.1048C11.83 57.1048 11.92 57.1048 12.01 57.0144L30.1 46.4376C31 47.884 32.26 49.1496 33.79 50.144L23.35 68.3144C23.26 68.4952 23.26 68.7664 23.53 68.9472C23.62 68.9472 23.71 69.0376 23.8 69.0376C23.98 69.0376 24.07 68.9472 24.16 68.7664L34.6 50.596C36.22 51.5 38.11 51.952 40.09 51.952C46.57 51.952 51.79 46.7088 51.79 40.2C51.79 38.2112 51.34 36.3128 50.44 34.6856L68.53 24.1992C68.62 24.1088 68.71 23.8376 68.62 23.6568ZM40 50.144C34.51 50.144 30.1 45.7144 30.1 40.2C30.1 34.6856 34.51 30.256 40 30.256C45.49 30.256 49.9 34.6856 49.9 40.2C49.9 45.7144 45.49 50.144 40 50.144Z" fill="white"/>
</g>
</svg>
