<svg width="30" height="38" viewBox="0 0 30 38" fill="none" xmlns="http://www.w3.org/2000/svg">
<g id="noun-cd-1581014 1">
<g id="Group">
<path id="Vector" d="M14.9998 1.824C7.70981 1.824 1.7998 7.8128 1.7998 15.2C1.7998 22.5872 7.70981 28.576 14.9998 28.576C22.2898 28.576 28.1998 22.5872 28.1998 15.2C28.1998 7.8128 22.2898 1.824 14.9998 1.824ZM14.9998 27.968C8.0398 27.968 2.3998 22.2528 2.3998 15.2C2.3998 8.1472 8.0398 2.432 14.9998 2.432C21.9598 2.432 27.5998 8.1472 27.5998 15.2C27.5998 22.2528 21.9598 27.968 14.9998 27.968Z" fill="white"/>
<path id="Vector_2" d="M14.9998 3.1312C8.42984 3.1312 3.08984 8.5424 3.08984 15.2C3.08984 21.8576 8.42984 27.2688 14.9998 27.2688C21.5698 27.2688 26.9098 21.8576 26.9098 15.2C26.9098 8.5424 21.5698 3.1312 14.9998 3.1312ZM14.9998 26.9648C8.57984 26.9648 3.38984 21.6752 3.38984 15.2C3.38984 8.7248 8.57984 3.4352 14.9998 3.4352C21.4198 3.4352 26.6098 8.6944 26.6098 15.2C26.6098 21.7056 21.4198 26.9648 14.9998 26.9648Z" fill="white"/>
<path id="Vector_3" d="M14.9996 14.288C14.4896 14.288 14.0996 14.6832 14.0996 15.2C14.0996 15.7168 14.4896 16.112 14.9996 16.112C15.5096 16.112 15.8996 15.7168 15.8996 15.2C15.8996 14.6832 15.5096 14.288 14.9996 14.288ZM14.9996 15.808C14.6696 15.808 14.3996 15.5344 14.3996 15.2C14.3996 14.8656 14.6696 14.592 14.9996 14.592C15.3296 14.592 15.5996 14.8656 15.5996 15.2C15.5996 15.5344 15.3296 15.808 14.9996 15.808Z" fill="white"/>
<path id="Vector_4" d="M24.54 9.6368C24.51 9.576 24.42 9.5456 24.33 9.576L18.3 13.1024C18 12.616 17.58 12.1904 17.07 11.856L20.55 5.7456C20.58 5.6848 20.58 5.5936 20.49 5.5328C20.43 5.5024 20.34 5.5024 20.28 5.5936L16.83 11.704C16.29 11.4 15.66 11.248 15 11.248C12.84 11.248 11.1 13.0112 11.1 15.2C11.1 15.8688 11.25 16.5072 11.55 17.0544L5.52001 20.5808C5.46001 20.6112 5.43001 20.7024 5.46001 20.7936C5.49001 20.8544 5.55001 20.8848 5.58001 20.8848C5.61001 20.8848 5.64001 20.8848 5.67001 20.8544L11.7 17.2976C12 17.784 12.42 18.2096 12.93 18.544L9.45001 24.6544C9.42001 24.7152 9.42001 24.8064 9.51001 24.8672C9.54001 24.8672 9.57001 24.8976 9.60001 24.8976C9.66001 24.8976 9.69001 24.8672 9.72001 24.8064L13.2 18.696C13.74 19 14.37 19.152 15.03 19.152C17.19 19.152 18.93 17.3888 18.93 15.2C18.93 14.5312 18.78 13.8928 18.48 13.3456L24.51 9.8192C24.54 9.7888 24.57 9.6976 24.54 9.6368ZM15 18.544C13.17 18.544 11.7 17.0544 11.7 15.2C11.7 13.3456 13.17 11.856 15 11.856C16.83 11.856 18.3 13.3456 18.3 15.2C18.3 17.0544 16.83 18.544 15 18.544Z" fill="white"/>
</g>
</g>
</svg>
