<svg width="31" height="31" viewBox="0 0 31 31" fill="none" xmlns="http://www.w3.org/2000/svg">
<g id="Silver Disk Esme">
<path id="Ellipse 8" d="M30.75 15.495C30.75 23.9145 23.9224 30.74 15.5 30.74C7.07758 30.74 0.25 23.9145 0.25 15.495C0.25 7.0755 7.07758 0.25 15.5 0.25C23.9224 0.25 30.75 7.0755 30.75 15.495Z" fill="#D4D4D4" stroke="#7F7B7B" stroke-width="0.5"/>
<path id="Ellipse 9" d="M28.3166 15.495C28.3166 22.5711 22.5784 28.3075 15.4999 28.3075C8.42144 28.3075 2.68325 22.5711 2.68325 15.495C2.68325 8.41884 8.42144 2.68246 15.4999 2.68246C22.5784 2.68246 28.3166 8.41884 28.3166 15.495Z" fill="#D4D4D4" stroke="#7F7B7B" stroke-width="0.2"/>
<path id="Ellipse 10" d="M20.5663 15.4948C20.5663 18.2921 18.2979 20.5598 15.4997 20.5598C12.7014 20.5598 10.433 18.2921 10.433 15.4948C10.433 12.6975 12.7014 10.4298 15.4997 10.4298C18.2979 10.4298 20.5663 12.6975 20.5663 15.4948Z" fill="#D4D4D4" stroke="#7F7B7B" stroke-width="0.2"/>
<path id="Vector 7" d="M18.0823 10.3301L20.6659 6.45587" stroke="#7F7B7B" stroke-width="0.2"/>
<path id="Vector 9" d="M10.3325 24.5331L12.9162 20.6589" stroke="#7F7B7B" stroke-width="0.2"/>
</g>
</svg>
